<svg width="300" height="201" viewBox="0 0 300 201" fill="none" xmlns="http://www.w3.org/2000/svg">
<path d="M157.5 186.214C153.214 189.5 167.643 201.643 132.214 188.857C96.8571 176.071 82.4286 131.5 75.2143 106.929C68 82.3572 87.3571 48.9286 100.143 39.4286C112.929 29.9286 136.5 26 139.143 25.6429C141.714 25.3572 145.357 23.7143 151.571 17.5C157.786 11.2857 177.429 4.7143 191.571 7.64288C205.643 10.5714 240.714 44 263.929 91.2143C287.214 138.357 255.786 172.143 250.214 172.143C244.643 172.143 212.5 150.5 209.571 147.857C206.643 145.286 199.429 144.571 194.143 142.643C188.929 140.643 176.786 126.286 176.786 126.286C178.786 162.286 161.714 182.929 157.5 186.214Z" fill="#EAB363"/>
<path d="M143.714 190.786C136.143 190.786 116.5 177.071 95.5714 148.214C74.5714 119.357 80.5 79.0715 80.5 79.0715C76.5714 140.357 148 187.857 148 187.857C148 187.857 151.214 190.786 143.714 190.786Z" fill="#8C5E28"/>
<path d="M194.143 142.643C188.929 140.643 176.786 126.286 176.786 126.286C176.786 126.286 171.214 67.2858 176.786 41.4286C182.357 15.5 185.286 15.2143 189.214 23.7143C192.786 31.3572 193.929 114.143 206.286 146.071C202.786 144.786 197.929 144.071 194.143 142.643Z" fill="#E2942D"/>
<path d="M138.143 27.6429C138.143 27.6429 127 36.7857 124.714 37.5C122.429 38.1429 96.5 51.5715 89.3571 65.6429C82.1429 79.7143 86.7143 58.1429 94.2143 50.5715C101.786 43.0715 120.429 29.5715 138.143 27.6429Z" fill="#8C5E28"/>
<path d="M131.071 174.571C86.9286 198.5 34.6429 198.714 34.6429 198.714C40.5 183.929 23.5714 158.857 23.5714 158.857C72.2143 164 104.214 146.071 104.214 146.071C105.357 147.571 131.071 174.571 131.071 174.571Z" fill="#E6E6E6"/>
<path opacity="0.1" d="M131.071 174.571C117.571 181.857 103.357 186.929 90.0714 190.5C85.2143 173.143 73.9286 163.286 64.8571 158C89.5 154.286 104.214 146.071 104.214 146.071C105.357 147.571 131.071 174.571 131.071 174.571Z" fill="black"/>
<path d="M157.214 33.6429C150.286 46.8572 131.857 38.8572 136 38.6429C140.143 38.4286 152.571 21.3572 160.857 15.6429C169.214 9.92858 191.571 7.64286 194.071 11.2143C196.643 14.7857 189.5 15.3572 181.214 15.6429C172.857 15.8572 167.357 57.7857 167.357 57.7857C152.143 49.9286 164.143 20.4286 157.214 33.6429Z" fill="#F4CD9A"/>
</svg>